[Header]
FileType HTR
DataType HTRS
FileVersion 1
NumSegments 28
NumFrames 4
DataFrameRate 24
EulerRotationOrder ZYX
CalibrationUnits mm
RotationUnits Degrees
GlobalAxisofGravity Y
BoneLengthAxis Y
ScaleFactor 1.0
[SegmentNames&Hierarchy]
waist	GLOBAL
chest	waist
head	chest
joint2	chest
right_shoulder1	joint2
right_elbow1	right_shoulder1
right_wrist1	right_elbow1
right_hand1	right_wrist1
right_finger3	right_hand1
right_finger4	right_hand1
right_finger5	right_hand1
joint3	chest
right_shoulder2	joint3
right_elbow2	right_shoulder2
right_wrist2	right_elbow2
right_hand2	right_wrist2
right_finger6	right_hand2
right_finger7	right_hand2
right_finger8	right_hand2
Center_pelvis	waist
left_pelvs	Center_pelvis
left_leg	left_pelvs
left_knee	left_leg
left_foot	left_knee
right_pelvis	Center_pelvis
right_leg	right_pelvis
right_knee	right_leg
right_foot	right_knee
[BasePosition]
waist	0	0	0	179.9999991	0	91.33221985	1
chest	0	0	0	-2.307808268e-010	-1.984983424e-008	1.332219854	1
head	0	0	0	180	-1.481061187e-024	90	1
joint2	0	0	0	4.615476202e-010	-1.707085745e-006	90	1
right_shoulder1	0	0	0	1.916575325e-008	-1.983803253e-008	-88.02506599	1
right_elbow1	0	0	0	-180	-1.948815659e-008	-12.92899665	1
right_wrist1	0	0	0	3.256551172e-010	1.942478841e-008	1.920938916	1
right_hand1	0	0	0	136.2194085	85.17676588	-133.4832578	1
right_finger3	0	0	0	154.4596717	79.84057755	147.6247455	1
right_finger4	0	0	0	154.4596717	79.84057755	147.6247455	1
right_finger5	0	0	0	154.4596717	79.84057755	147.6247455	1
joint3	0	0	0	-180	-1.89575832e-022	90	1
right_shoulder2	0	0	0	6.774897105e-015	-7.012540931e-015	-88.02506599	1
right_elbow2	0	0	0	-180	-6.888863384e-015	-12.92899665	1
right_wrist2	0	0	0	-1.240805042e-012	-7.401196581e-011	1.920938916	1
right_hand2	0	0	0	136.2194085	85.17676588	-133.4832578	1
right_finger6	0	0	0	154.4596717	79.84057755	147.6247455	1
right_finger7	0	0	0	154.4596717	79.84057755	147.6247455	1
right_finger8	0	0	0	154.4596717	79.84057755	147.6247455	1
Center_pelvis	0	0	0	-180	-8.537716493e-007	89.87586122	1
left_pelvs	0	0	0	0	0	-1.456358634	1
left_leg	0	0	0	179.9999991	0	88.69804733	1
left_knee	0	0	0	-180	-7.863991589e-009	-2.076172838	1
left_foot	0	0	0	179.9999985	-3.055580289e-010	-90.77422016	1
right_pelvis	0	0	0	0	0	-2.39554958	1
right_leg	0	0	0	0	0	-87.75885638	1
right_knee	0	0	0	179.9999991	3.702652968e-022	-2.076172838	1
right_foot	0	0	0	180	-7.405305937e-025	-90.77422016	1
[waist]
27	0.2494212389	-3.152148962	0	-1.156031952e-018	1.033638239	-3.535264853e-016	1.0
28	0.2494212389	-3.152148962	0	2.034339564e-019	0.7848629355	-4.760396632e-016	1.0
29	0.2494212389	-3.152148962	0	2.034339564e-019	0.7848629355	-4.760396632e-016	1.0
30	0.2494212389	-3.152148962	0	2.034339564e-019	0.7848629355	-4.760396632e-016	1.0
[chest]
27	26.90063095	-5.105234635e-008	3.426064014	-11.21808529	9.81624794	-0.4275716841	1.0
28	26.90063095	-5.105234635e-008	3.426064014	-10.3290081	9.823184967	-0.4306355715	1.0
29	26.90063095	-5.105234635e-008	3.426064014	-10.3290081	9.823184967	-0.4306355715	1.0
30	26.90063095	-5.105234635e-008	3.426064014	-10.3290081	9.823184967	-0.4306355715	1.0
[head]
27	19.82482719	-0.6501463652	0.06371103972	-1.655248642	-1.119075298	-0.6388429999	1.0
28	19.81348038	-0.6612546444	0.1181047484	-2.316629648	-0.6878151298	-0.5876274109	1.0
29	19.81348038	-0.6612546444	0.1181047484	-2.316629648	-0.6878151298	-0.5876274109	1.0
30	19.81348038	-0.6612546444	0.1181047484	-2.316629648	-0.6878151298	-0.5876274109	1.0
[joint2]
27	-1.657010078	17.01290512	0.01287616603	-20.02001762	7.320924282	12.42400169	1.0
28	-1.657010078	17.01290512	0.01287616603	-19.17378807	0.1165924072	10.03537846	1.0
29	-1.657010078	17.01290512	0.01287616603	-18.32755852	-7.087739468	7.646754265	1.0
30	-1.657010078	17.01290512	0.01287616603	-17.58935928	-13.37236977	5.563060284	1.0
[right_shoulder1]
27	14.91590023	0.6211000085	0.9477797747	8.654571533	1.906057477	-15.53609371	1.0
28	14.91590023	0.6211000085	0.9477797747	8.986538887	1.592020154	-10.80533123	1.0
29	14.91590023	0.6211000085	0.9477797747	9.282091141	1.27798295	-6.338465214	1.0
30	14.91590023	0.6211000085	0.9477797747	9.519769669	1.004035711	-2.587821484	1.0
[right_elbow1]
27	-13.64346027	1.083028078	-0.5017899871	-9.682434082	36.92483902	-17.30053139	1.0
28	-13.64346027	1.083028078	-0.5017899871	-9.932020187	35.90272522	-17.74899673	1.0
29	-13.64346027	1.083028078	-0.5017899871	-10.13182259	34.88061523	-18.10279083	1.0
30	-13.64346027	1.083028078	-0.5017899871	-10.2785778	33.98899078	-18.35904312	1.0
[right_wrist1]
27	-11.07325459	0.004849368241	0.6145500541	0	19.74069595	0	1.0
28	-11.07325459	0.004849368241	0.6145500541	0	19.74478531	0	1.0
29	-11.07325459	0.004849368241	0.6145500541	0	19.74726295	0	1.0
30	-11.07325459	0.004849368241	0.6145500541	0	19.74853706	0	1.0
[right_hand1]
27	-8.785093307	0.04701882228	0.1882400364	17.70454979	19.04370117	39.26101303	1.0
28	-8.785093307	0.04701882228	0.1882400364	19.14973831	19.04826355	40.50908279	1.0
29	-8.785093307	0.04701882228	0.1882400364	20.45563316	19.05238533	41.63685608	1.0
30	-8.785093307	0.04701882228	0.1882400364	21.51775932	19.05573845	42.5541153	1.0
[right_finger3]
27	10.07661057	3.347557783	-1.489186764	-83.72096252	25.80014229	89.20973206	1.0
28	10.07661057	3.347557783	-1.489186764	-83.70326233	26.6949234	89.30327606	1.0
29	10.07661057	3.347557783	-1.489186764	-83.68807983	27.46232605	89.38349915	1.0
30	10.07661057	3.347557783	-1.489186764	-83.67622375	28.06130028	89.44611359	1.0
[right_finger4]
27	-1.201135993	3.376283169	11.27149582	-197.5407104	7.029546738	88.67673492	1.0
28	-1.201135993	3.376283169	11.27149582	-197.7268066	6.789252281	87.7536087	1.0
29	-1.201135993	3.376283169	11.27149582	-197.8864136	6.583165169	86.9618988	1.0
30	-1.201135993	3.376283169	11.27149582	-198.0109711	6.422310352	86.34394836	1.0
[right_finger5]
27	-6.853637218	4.493112087	-5.936321735	33.5199852	-7.221795082	95.96578979	1.0
28	-6.853637218	4.493112087	-5.936321735	33.54393768	-7.739152908	96.73529053	1.0
29	-6.853637218	4.493112087	-5.936321735	33.56448364	-8.182861328	97.39524078	1.0
30	-6.853637218	4.493112087	-5.936321735	33.58051682	-8.529184341	97.91034698	1.0
[joint3]
27	-1.657010078	-17.01289368	0.01287565939	-23.32829475	23.437006	1.870153427	1.0
28	-1.657010078	-17.01289368	0.01287565939	-25.3831749	17.37178802	2.530386925	1.0
29	-1.657010078	-17.01289368	0.01287565939	-27.382761	11.30657005	2.930856705	1.0
30	-1.657010078	-17.01289368	0.01287565939	-29.09648895	6.015635967	3.13650322	1.0
[right_shoulder2]
27	-14.91590023	-0.6211000085	-0.9477797747	7.150653839	-24.65451431	-30.85825539	1.0
28	-14.91590023	-0.6211000085	-0.9477797747	5.764905453	-23.63293076	-24.50974464	1.0
29	-14.91590023	-0.6211000085	-0.9477797747	4.579197407	-22.73272324	-18.9354763	1.0
30	-14.91590023	-0.6211000085	-0.9477797747	3.655515671	-22.01458168	-14.50111771	1.0
[right_elbow2]
27	13.64346027	-1.083028078	0.5017899871	3.517749786	18.41222572	-11.9249239	1.0
28	13.64346027	-1.083028078	0.5017899871	3.30513382	16.93462944	-12.50444508	1.0
29	13.64346027	-1.083028078	0.5017899871	3.117779016	15.63258839	-13.01511288	1.0
30	13.64346027	-1.083028078	0.5017899871	2.968316317	14.59388065	-13.42249966	1.0
[right_wrist2]
27	11.07325459	-0.004849368241	-0.6145500541	0.8533793688	13.08585072	-16.06985855	1.0
28	11.07325459	-0.004849368241	-0.6145500541	0.5881752968	11.89995098	-18.20948029	1.0
29	11.07325459	-0.004849368241	-0.6145500541	0.3544807136	10.8549509	-20.09488869	1.0
30	11.07325459	-0.004849368241	-0.6145500541	0.1680500507	10.02129745	-21.59897995	1.0
[right_hand2]
27	8.785093307	-0.04701882228	-0.1882400364	12.13079166	23.63770103	27.75439644	1.0
28	8.785093307	-0.04701882228	-0.1882400364	11.31050682	23.84420776	26.69781494	1.0
29	8.785093307	-0.04701882228	-0.1882400364	10.58768177	24.02618027	25.76676559	1.0
30	8.785093307	-0.04701882228	-0.1882400364	10.01104546	24.17135048	25.02401924	1.0
[right_finger6]
27	-10.07661057	-3.347557783	1.489186764	-40.05410385	-42.53928375	38.9731369	1.0
28	-10.07661057	-3.347557783	1.489186764	-53.75677872	-34.97606659	53.16081238	1.0
29	-10.07661057	-3.347557783	1.489186764	-65.83141327	-28.31145287	65.66282654	1.0
30	-10.07661057	-3.347557783	1.489186764	-75.46399689	-22.99473381	75.63633728	1.0
[right_finger7]
27	1.201135993	-3.376283169	-11.27149582	-180.1380157	17.20834541	157.8070679	1.0
28	1.201135993	-3.376283169	-11.27149582	-182.1591949	17.46521568	151.2361145	1.0
29	1.201135993	-3.376283169	-11.27149582	-183.9402466	17.68226433	145.4458618	1.0
30	1.201135993	-3.376283169	-11.27149582	-185.3610687	17.84957504	140.8266602	1.0
[right_finger8]
27	6.853637218	-4.493112087	5.936321735	27.26377296	18.77911377	52.75811768	1.0
28	6.853637218	-4.493112087	5.936321735	28.86896133	16.92017937	56.91223907	1.0
29	6.853637218	-4.493112087	5.936321735	30.28343391	15.2821064	60.57280731	1.0
30	6.853637218	-4.493112087	5.936321735	31.41183281	13.9753294	63.49303436	1.0
[Center_pelvis]
27	-5.616972446	-0.3766000271	2.04698658	-14.49119949	-21.1861515	-0.4899761975	1.0
28	-5.616972446	-0.3766000271	2.04698658	-12.38588428	-23.19854164	1.101233244	1.0
29	-5.616972446	-0.3766000271	2.04698658	-12.38588428	-23.19854164	1.101233244	1.0
30	-5.616972446	-0.3766000271	2.04698658	-12.38588428	-23.19854164	1.101233244	1.0
[left_pelvs]
27	11.08986378	-0.01586683653	-0.09214995801	7.610143185	1.352091551	6.036568642	1.0
28	11.08986378	-0.01586683653	-0.09214995801	6.148669243	1.414303303	5.901702881	1.0
29	11.08986378	-0.01586683653	-0.09214995801	6.148669243	1.414303303	5.901702881	1.0
30	11.08986378	-0.01586683653	-0.09214995801	6.148669243	1.414303303	5.901702881	1.0
[left_leg]
27	8.450808053e-008	-5.682914734	0.3641465604	0.005734333768	-43.26974106	-0.01136556361	1.0
28	8.450808053e-008	-5.682914734	0.3641465604	0	-44.1576767	0	1.0
29	8.450808053e-008	-5.682914734	0.3641465604	0	-44.1576767	0	1.0
30	8.450808053e-008	-5.682914734	0.3641465604	0	-44.1576767	0	1.0
[left_knee]
27	-11.22830296	-0.05943708494	0.7325389981	24.15515709	-51.73642731	-10.21185207	1.0
28	-11.25272655	-0.06376251578	0.766244173	26.17785072	-51.85923767	-11.76735497	1.0
29	-11.25272655	-0.06376251578	0.766244173	26.17785072	-51.85923767	-11.76735497	1.0
30	-11.25272655	-0.06376251578	0.766244173	26.17785072	-51.85923767	-11.76735497	1.0
[left_foot]
27	-14.54718971	-0.01193539705	1.933258442e-009	-3.090228081	1.590484381	-1.464525223	1.0
28	-14.54718971	-0.01193539705	1.933258442e-009	-1.392304778	1.663664937	-1.531910181	1.0
29	-14.54718971	-0.01193539705	1.933258442e-009	-1.392304778	1.663664937	-1.531910181	1.0
30	-14.54718971	-0.01193539705	1.933258442e-009	-1.392304778	1.663664937	-1.531910181	1.0
[right_pelvis]
27	-10.5868988	0.4465443194	0.2088862956	11.94802952	-2.316697359	-4.105791569	1.0
28	-10.5868988	0.4465443194	0.2088862956	9.093179703	-1.861402035	-4.980240822	1.0
29	-10.5868988	0.4465443194	0.2088862956	9.093179703	-1.861402035	-4.980240822	1.0
30	-10.5868988	0.4465443194	0.2088862956	9.093179703	-1.861402035	-4.980240822	1.0
[right_leg]
27	0.09169664979	-5.593489647	0.06310817599	13.14919472	-1.040606022	-4.227257252	1.0
28	0.09169664979	-5.593489647	0.06310817599	15.08003426	-3.669829369	-4.350863457	1.0
29	0.09169664979	-5.593489647	0.06310817599	15.08003426	-3.669829369	-4.350863457	1.0
30	0.09169664979	-5.593489647	0.06310817599	15.08003426	-3.669829369	-4.350863457	1.0
[right_knee]
27	10.69750977	-0.03459574655	-3.22520966e-015	21.09288025	-28.0525341	-5.39099741	1.0
28	10.69750977	-0.03459574655	-2.358958382e-015	24.99990654	-24.14360046	-5.176771641	1.0
29	10.69750977	-0.03459574655	-1.492771267e-015	24.99990654	-24.14360046	-5.176771641	1.0
30	10.69750977	-0.03459574655	-7.37182409e-016	24.99990654	-24.14360046	-5.176771641	1.0
[right_foot]
27	14.54718685	0.01191107463	1.213187328e-010	-34.97776794	8.618433952	10.58818913	1.0
28	14.54718685	0.01191107463	8.873402013e-011	-33.05178833	10.21482277	12.54943562	1.0
29	14.54718685	0.01191107463	5.61517291e-011	-33.05178833	10.21482277	12.54943562	1.0
30	14.54718685	0.01191107463	2.772968487e-011	-33.05178833	10.21482277	12.54943562	1.0
[EndOfFile]
